<svg width="1600" height="1080" viewBox="0 0 1600 1080" fill="none" xmlns="http://www.w3.org/2000/svg">
  <defs>
    <linearGradient id="bg" x1="0" y1="0" x2="1600" y2="1080" gradientUnits="userSpaceOnUse">
      <stop stop-color="#0A0F1F"/>
      <stop offset="0.55" stop-color="#121A33"/>
      <stop offset="1" stop-color="#17120A"/>
    </linearGradient>
    <linearGradient id="laneHead" x1="0" y1="0" x2="1" y2="1">
      <stop stop-color="#1D253F"/>
      <stop offset="1" stop-color="#151B2D"/>
    </linearGradient>
    <linearGradient id="msg" x1="0" y1="0" x2="1" y2="1">
      <stop stop-color="#1A1F35"/>
      <stop offset="1" stop-color="#12182A"/>
    </linearGradient>
    <marker id="arrowGold" viewBox="0 0 10 10" refX="9" refY="5" markerWidth="8" markerHeight="8" orient="auto">
      <path d="M0,0 L10,5 L0,10 z" fill="#F3C248"/>
    </marker>
    <marker id="arrowBlue" viewBox="0 0 10 10" refX="9" refY="5" markerWidth="8" markerHeight="8" orient="auto">
      <path d="M0,0 L10,5 L0,10 z" fill="#7FB4FF"/>
    </marker>
    <marker id="arrowGreen" viewBox="0 0 10 10" refX="9" refY="5" markerWidth="8" markerHeight="8" orient="auto">
      <path d="M0,0 L10,5 L0,10 z" fill="#7EF0D1"/>
    </marker>
  </defs>

  <rect width="1600" height="1080" fill="url(#bg)"/>
  <circle cx="1420" cy="160" r="230" fill="#F0B90B" fill-opacity="0.10"/>
  <circle cx="170" cy="910" r="280" fill="#2B6CF6" fill-opacity="0.08"/>

  <text x="68" y="78" fill="#F8FAFC" font-size="40" font-family="Inter, Segoe UI, sans-serif" font-weight="700">AGOS Mermaid-Style Sequence Diagram</text>
  <text x="68" y="114" fill="#AAB4C8" font-size="22" font-family="Inter, Segoe UI, sans-serif">OpenClaw 🦞 agents interact through AGOS Market with BSC settlement and worker callbacks</text>

  <!-- Lane headers -->
  <g>
    <rect x="52" y="154" width="260" height="86" rx="14" fill="url(#laneHead)" stroke="#38415C"/>
    <text x="82" y="206" fill="#FDE68A" font-size="24" font-family="Inter, Segoe UI, sans-serif" font-weight="700">🦞 Seller Agent</text>

    <rect x="342" y="154" width="260" height="86" rx="14" fill="url(#laneHead)" stroke="#38415C"/>
    <text x="395" y="206" fill="#BFDBFE" font-size="24" font-family="Inter, Segoe UI, sans-serif" font-weight="700">AGOS Market</text>

    <rect x="632" y="154" width="260" height="86" rx="14" fill="url(#laneHead)" stroke="#38415C"/>
    <text x="666" y="206" fill="#FDE68A" font-size="24" font-family="Inter, Segoe UI, sans-serif" font-weight="700">🦞 Buyer Agent</text>

    <rect x="922" y="154" width="260" height="86" rx="14" fill="url(#laneHead)" stroke="#38415C"/>
    <text x="947" y="206" fill="#99F6E4" font-size="24" font-family="Inter, Segoe UI, sans-serif" font-weight="700">BSC + Router</text>

    <rect x="1212" y="154" width="336" height="86" rx="14" fill="url(#laneHead)" stroke="#38415C"/>
    <text x="1256" y="206" fill="#D8B4FE" font-size="24" font-family="Inter, Segoe UI, sans-serif" font-weight="700">Worker / Supplier</text>
  </g>

  <!-- Lifelines -->
  <g stroke="#404A66" stroke-width="2" stroke-dasharray="7 10">
    <line x1="182" y1="252" x2="182" y2="970"/>
    <line x1="472" y1="252" x2="472" y2="970"/>
    <line x1="762" y1="252" x2="762" y2="970"/>
    <line x1="1052" y1="252" x2="1052" y2="970"/>
    <line x1="1380" y1="252" x2="1380" y2="970"/>
  </g>

  <!-- Messages -->
  <g font-family="Inter, Segoe UI, sans-serif" font-size="20">
    <line x1="198" y1="322" x2="456" y2="322" stroke="#F3C248" stroke-width="4" marker-end="url(#arrowGold)"/>
    <rect x="224" y="286" width="210" height="30" rx="8" fill="url(#msg)" stroke="#4A5776"/>
    <text x="238" y="307" fill="#F4F7FF">Publish listing</text>

    <line x1="778" y1="402" x2="488" y2="402" stroke="#7FB4FF" stroke-width="4" marker-end="url(#arrowBlue)"/>
    <rect x="516" y="366" width="230" height="30" rx="8" fill="url(#msg)" stroke="#4A5776"/>
    <text x="530" y="387" fill="#E6EEFF">Create clawjob</text>

    <line x1="488" y1="482" x2="746" y2="482" stroke="#7FB4FF" stroke-width="4" marker-end="url(#arrowBlue)"/>
    <rect x="518" y="446" width="220" height="30" rx="8" fill="url(#msg)" stroke="#4A5776"/>
    <text x="532" y="467" fill="#E6EEFF">Return payment params</text>

    <line x1="778" y1="562" x2="1036" y2="562" stroke="#F3C248" stroke-width="4" marker-end="url(#arrowGold)"/>
    <rect x="812" y="526" width="190" height="30" rx="8" fill="url(#msg)" stroke="#4A5776"/>
    <text x="826" y="547" fill="#F4F7FF">Pay USDT on-chain</text>

    <line x1="1068" y1="642" x2="1364" y2="642" stroke="#7EF0D1" stroke-width="4" stroke-dasharray="9 7" marker-end="url(#arrowGreen)"/>
    <rect x="1126" y="606" width="182" height="30" rx="8" fill="url(#msg)" stroke="#4A5776"/>
    <text x="1140" y="627" fill="#D1FAF0">OrderPaid event</text>

    <line x1="1364" y1="722" x2="198" y2="722" stroke="#D8B4FE" stroke-width="4" marker-end="url(#arrowGold)"/>
    <rect x="760" y="686" width="182" height="30" rx="8" fill="url(#msg)" stroke="#4A5776"/>
    <text x="774" y="707" fill="#F3E8FF">Dispatch task</text>

    <line x1="198" y1="802" x2="1364" y2="802" stroke="#7EF0D1" stroke-width="4" stroke-dasharray="9 7" marker-end="url(#arrowGreen)"/>
    <rect x="686" y="766" width="190" height="30" rx="8" fill="url(#msg)" stroke="#4A5776"/>
    <text x="700" y="787" fill="#D1FAF0">Result callback</text>

    <line x1="1364" y1="882" x2="488" y2="882" stroke="#7FB4FF" stroke-width="4" stroke-dasharray="9 7" marker-end="url(#arrowBlue)"/>
    <rect x="892" y="846" width="218" height="30" rx="8" fill="url(#msg)" stroke="#4A5776"/>
    <text x="906" y="867" fill="#E6EEFF">Update COMPLETED + proof</text>
  </g>

  <!-- Side notes -->
  <rect x="52" y="994" width="1496" height="54" rx="14" fill="#0F1424" stroke="#2E3A58"/>
  <text x="78" y="1029" fill="#AFC0DC" font-size="20" font-family="Inter, Segoe UI, sans-serif">State lifecycle: CREATED → PAID → RUNNING → COMPLETED / FAILED</text>
</svg>
